<?xml version="1.0" encoding="utf-8"?>
<!-- Generator: Adobe Illustrator 24.1.2, SVG Export Plug-In . SVG Version: 6.00 Build 0)  -->
<svg version="1.1" id="Layer_1" xmlns="http://www.w3.org/2000/svg" xmlns:xlink="http://www.w3.org/1999/xlink" x="0px" y="0px"
	 viewBox="0 0 24 24" style="enable-background:new 0 0 24 24;" xml:space="preserve">
<style type="text/css">
	.st0{fill:#0064FF;}
</style>
<g>
	<path class="st0" d="M12,2.2c3.2,0,3.6,0,4.8,0.1c1.4,0.1,2.6,0.3,3.6,1.3s1.2,2.2,1.3,3.6c0.1,1.3,0.1,1.6,0.1,4.8s0,3.6-0.1,4.8
		c-0.1,1.4-0.3,2.6-1.3,3.6s-2.2,1.2-3.6,1.3c-1.3,0.1-1.6,0.1-4.8,0.1s-3.6,0-4.8-0.1c-1.4-0.1-2.6-0.3-3.6-1.3s-1.2-2.2-1.3-3.6
		c-0.1-1.3-0.1-1.6-0.1-4.8s0-3.6,0.1-4.8c0.1-1.4,0.3-2.6,1.3-3.6s2.2-1.2,3.6-1.3C8.4,2.2,8.8,2.2,12,2.2 M12,0
		C8.7,0,8.3,0,7.1,0.1C5.1,0.2,3.4,0.6,2,2s-1.9,3.1-1.9,5C0,8.3,0,8.7,0,12s0,3.7,0.1,4.9c0.1,2,0.6,3.7,1.9,5s3.1,1.9,5,1.9
		C8.3,24,8.7,24,12,24s3.7,0,4.9-0.1c2-0.1,3.7-0.6,5-1.9s1.9-3.1,1.9-5C24,15.7,24,15.3,24,12s0-3.7-0.1-4.9
		c-0.1-1.9-0.6-3.7-1.9-5s-3.1-1.9-5-1.9C15.7,0,15.3,0,12,0L12,0z"/>
	<path class="st0" d="M12,5.8c-3.4,0-6.2,2.8-6.2,6.2s2.8,6.2,6.2,6.2s6.2-2.8,6.2-6.2S15.4,5.8,12,5.8z M12,16c-2.2,0-4-1.8-4-4
		s1.8-4,4-4s4,1.8,4,4S14.2,16,12,16z"/>
	<circle class="st0" cx="18.4" cy="5.6" r="1.4"/>
</g>
</svg>
