<?xml version="1.0" encoding="utf-8"?>
<!-- Generator: Adobe Illustrator 24.2.1, SVG Export Plug-In . SVG Version: 6.00 Build 0)  -->
<svg version="1.1" id="Layer_1" xmlns="http://www.w3.org/2000/svg" xmlns:xlink="http://www.w3.org/1999/xlink" x="0px" y="0px"
	 viewBox="0 0 768 432" style="enable-background:new 0 0 768 432;" xml:space="preserve">
<style type="text/css">
	.st0{fill:#FFFFFF;}
</style>
<g>
	<rect x="-0.2" y="-0.2" width="768" height="432"/>
</g>
<g>
	<path class="st0" d="M285.5,267.6c-3.4,1.4-7.2,2.1-11.4,2.1c-4.1,0-7.9-0.8-11.5-2.3c-3.6-1.6-6.8-3.7-9.5-6.4
		c-2.7-2.7-4.9-5.9-6.4-9.5c-1.6-3.6-2.3-7.4-2.3-11.5c0-4.1,0.8-7.9,2.3-11.6c1.6-3.7,3.7-6.9,6.4-9.6c2.7-2.7,5.9-4.9,9.5-6.4
		c3.6-1.6,7.4-2.3,11.5-2.3c4.2,0,8,0.7,11.4,2.1c3.4,1.4,6.5,3.4,9.2,5.8l15.3-14.7l-0.4-0.4c-4.5-4.3-9.8-7.8-15.9-10.3
		c-6.1-2.5-12.6-3.8-19.6-3.8s-13.5,1.3-19.7,4c-6.2,2.6-11.6,6.3-16.2,10.9c-4.6,4.6-8.3,10.1-11,16.3c-2.7,6.3-4.1,12.9-4.1,20
		c0,7.1,1.4,13.7,4.1,19.9c2.7,6.2,6.4,11.6,11,16.2c4.6,4.6,10,8.3,16.2,10.9c6.2,2.6,12.7,4,19.7,4s13.4-1.3,19.6-3.8
		c6.1-2.5,11.4-5.9,15.9-10.3l0.4-0.4l-15.3-14.7C291.9,264.2,288.8,266.2,285.5,267.6z"/>
	<path class="st0" d="M473.7,203.9c-4.6-4.6-10-8.3-16.2-10.9c-6.2-2.6-12.7-4-19.7-4c-7.1,0-13.7,1.3-19.9,4
		c-6.2,2.6-11.5,6.3-16.1,10.9c-1.8,1.9-3.5,3.9-5,6c-1.6-2.1-3.3-4.1-5.1-6c-4.6-4.6-10-8.3-16.2-10.9c-6.2-2.6-12.7-4-19.7-4
		c-7.1,0-13.7,1.3-19.9,4c-6.2,2.6-11.5,6.3-16.1,10.9c-4.6,4.6-8.2,10-10.8,16.2c-2.6,6.2-4,12.8-4,19.9c0,7.1,1.3,13.7,4,19.9
		c2.6,6.2,6.2,11.5,10.8,16.1c4.5,4.6,9.9,8.2,16.1,10.8c6.2,2.6,12.8,4,19.9,4c6.9,0,13.5-1.3,19.7-4c6.2-2.6,11.6-6.2,16.2-10.8
		c1.9-1.8,3.6-3.8,5.1-5.9c1.5,2.1,3.2,4.1,5,5.9c4.5,4.6,9.9,8.2,16.1,10.8c6.2,2.6,12.8,4,19.9,4c6.9,0,13.5-1.3,19.7-4
		c6.2-2.6,11.6-6.2,16.2-10.8c4.6-4.5,8.3-9.9,11-16.1c2.7-6.2,4.1-12.8,4.1-19.9c0-7.1-1.4-13.7-4.1-19.9
		C482,213.9,478.3,208.5,473.7,203.9z M383.2,251.5c-1.6,3.6-3.7,6.7-6.3,9.4c-2.6,2.6-5.8,4.8-9.5,6.3c-3.7,1.6-7.5,2.3-11.6,2.3
		c-4.1,0-7.9-0.8-11.6-2.3c-3.7-1.6-6.9-3.7-9.6-6.3c-2.7-2.6-4.9-5.8-6.4-9.4c-1.6-3.6-2.3-7.4-2.3-11.5c0-4.1,0.8-7.9,2.3-11.6
		c1.6-3.7,3.7-6.8,6.4-9.5c2.7-2.6,5.9-4.8,9.6-6.3c3.7-1.6,7.5-2.3,11.6-2.3c4.1,0,7.9,0.8,11.6,2.3c3.7,1.6,6.8,3.7,9.5,6.3
		s4.8,5.8,6.3,9.5c1.6,3.7,2.3,7.5,2.3,11.6C385.6,244.1,384.8,247.9,383.2,251.5z M465.2,251.5c-1.6,3.6-3.7,6.7-6.3,9.4
		c-2.6,2.6-5.8,4.8-9.5,6.3c-3.7,1.6-7.5,2.3-11.6,2.3c-4.1,0-7.9-0.8-11.6-2.3c-3.7-1.6-6.9-3.7-9.6-6.3c-2.7-2.6-4.9-5.8-6.4-9.4
		c-1.6-3.6-2.3-7.4-2.3-11.5c0-4.1,0.8-7.9,2.3-11.6c1.6-3.7,3.7-6.8,6.4-9.5c2.7-2.6,5.9-4.8,9.6-6.3c3.7-1.6,7.5-2.3,11.6-2.3
		c4.1,0,7.9,0.8,11.6,2.3c3.7,1.6,6.8,3.7,9.5,6.3s4.8,5.8,6.3,9.5c1.6,3.7,2.3,7.5,2.3,11.6C467.6,244.1,466.8,247.9,465.2,251.5z"
		/>
	<path class="st0" d="M626.9,189c-6.9,0-13.4,1.3-19.6,4c-6.1,2.6-11.4,6.3-16,10.9c-4.6,4.6-8.2,10-10.8,16.1
		c-2.6,6.1-4,12.6-4.2,19.6c0,4.1-0.8,7.9-2.3,11.5c-1.6,3.6-3.7,6.7-6.3,9.4c-2.6,2.6-5.8,4.8-9.4,6.3c-3.6,1.6-7.4,3-11.5,3
		s-7.9-0.8-11.6-2.3c-3.7-1.6-6.9-3.7-9.6-6.4c-2.7-2.7-4.9-5.9-6.4-9.6c-1.6-3.7-2.3-7.5-2.3-11.6v-2.6v-26.9h29.5V189h-29.5v-48.3
		l-21.2,21.4v78.7c0.1,6.9,1.6,13.4,4.4,19.6c2.8,6.1,6.5,11.4,11.1,15.9c4.6,4.5,10,8,16.1,10.7c6.1,2.6,12.6,4,19.6,4
		s13.5-1.3,19.7-4c6.2-2.6,11.6-6.2,16.3-10.8c4.7-4.5,8.4-9.8,11.1-15.9c2.7-6,4.1-12.5,4.3-19.5c0-4.1,0.8-7.9,2.3-11.5
		c1.6-3.6,3.7-6.8,6.3-9.6c2.6-2.8,5.8-5,9.4-6.5c3.6-1.6,7.4-2.3,11.5-2.3L626.9,189z"/>
	<path class="st0" d="M200.4,192.8c-6.1,2.6-11.4,6.3-16,10.9c-4.6,4.6-8.2,10-10.8,16.1c-2.6,6.1-4,12.6-4.2,19.6
		c0,4.1-0.8,7.9-2.3,11.5c-1.6,3.6-3.7,6.7-6.3,9.4c-2.6,2.6-5.8,4.8-9.4,6.3c-3.6,1.6-7.4,2.3-11.5,2.3v21.8c6.9,0,13.5-1.3,19.7-4
		c6.2-2.6,11.6-6.2,16.3-10.8c4.7-4.5,8.4-9.8,11.1-15.9c2.7-6,4.1-12.5,4.3-19.5c0-4.1,0.8-7.9,2.3-11.5c1.6-3.6,3.7-6.8,6.3-9.6
		c2.6-2.8,5.8-5,9.4-6.5c3.6-1.6,7.4-2.9,11.5-2.9l-0.8-21.2C213,188.8,206.5,190.2,200.4,192.8z"/>
</g>
</svg>
