<?xml version="1.0" encoding="utf-8"?>
<!-- Generator: Adobe Illustrator 24.2.1, SVG Export Plug-In . SVG Version: 6.00 Build 0)  -->
<svg version="1.1" xmlns="http://www.w3.org/2000/svg" xmlns:xlink="http://www.w3.org/1999/xlink" x="0px" y="0px"
	 viewBox="0 0 1024 250" style="enable-background:new 0 0 1024 250;" xml:space="preserve">
<style type="text/css">
	.st0{fill:#FFFFFF;}
	.st1{fill:#13ACB4;}
	.st2{fill:#095458;}
</style>
<g id="bg">
	<g>
		<rect class="st0" width="1024" height="250"/>
	</g>
</g>
<g id="Layer_2">
	<rect x="885" y="144" class="st1" width="10" height="64"/>
	<rect x="380" y="144" class="st1" width="10" height="64"/>
	<polygon class="st1" points="892,71 885,71 642,71 632,71 517,71 517,41 507,41 507,71 391,71 381,71 139,71 133,71 129,71 
		129,104 139,104 139,81 381,81 381,104 391,104 391,81 632,81 632,104 642,104 642,81 885,81 885,104 895,104 895,71 	"/>
	<g>
		<rect x="21.8" y="100" class="st2" width="225" height="50"/>
		<rect x="273.4" y="100" class="st2" width="225" height="50"/>
		<rect x="525.1" y="100" class="st2" width="225" height="50"/>
		<rect x="399.3" class="st2" width="225" height="50"/>
		<rect x="776.8" y="100" class="st2" width="225" height="50"/>
		<rect x="777.3" y="200" class="st2" width="225" height="50"/>
		<rect x="273" y="200" class="st2" width="225" height="50"/>
	</g>
	<g>
		<path class="st0" d="M498.6,31.2h-1.7v-5.9h-6.5v5.9h-1.7V18.4h1.7v5.5h6.5v-5.5h1.7V31.2z"/>
		<path class="st0" d="M500.9,26.3c0-0.9,0.2-1.8,0.5-2.5s0.9-1.3,1.5-1.7s1.4-0.6,2.2-0.6c1.3,0,2.3,0.4,3.1,1.3s1.2,2.1,1.2,3.6
			v0.1c0,0.9-0.2,1.8-0.5,2.5s-0.9,1.3-1.5,1.7s-1.4,0.6-2.3,0.6c-1.3,0-2.3-0.4-3.1-1.3s-1.2-2.1-1.2-3.6V26.3z M502.6,26.5
			c0,1.1,0.2,1.9,0.7,2.5s1.1,1,2,1c0.8,0,1.5-0.3,2-1s0.7-1.6,0.7-2.7c0-1-0.2-1.9-0.7-2.5s-1.2-1-2-1c-0.8,0-1.5,0.3-1.9,1
			S502.6,25.3,502.6,26.5z"/>
		<path class="st0" d="M513.2,21.7l0,1.1c0.7-0.8,1.6-1.2,2.8-1.2c1.3,0,2.2,0.5,2.7,1.5c0.3-0.5,0.7-0.8,1.2-1.1s1.1-0.4,1.8-0.4
			c2.1,0,3.1,1.1,3.2,3.3v6.4h-1.6v-6.3c0-0.7-0.2-1.2-0.5-1.5s-0.8-0.5-1.6-0.5c-0.6,0-1.1,0.2-1.5,0.5s-0.6,0.8-0.7,1.5v6.3h-1.6
			v-6.2c0-1.4-0.7-2.1-2-2.1c-1.1,0-1.8,0.5-2.2,1.4v6.9h-1.6v-9.5H513.2z"/>
		<path class="st0" d="M531.4,31.3c-1.3,0-2.3-0.4-3.1-1.3s-1.2-2-1.2-3.4v-0.3c0-0.9,0.2-1.8,0.5-2.5s0.9-1.3,1.5-1.7
			s1.3-0.6,2.1-0.6c1.2,0,2.2,0.4,2.9,1.2s1,2,1,3.5v0.7h-6.4c0,0.9,0.3,1.7,0.8,2.3s1.2,0.9,2,0.9c0.6,0,1.1-0.1,1.5-0.4
			s0.7-0.5,1-0.9l1,0.8C534.1,30.7,533,31.3,531.4,31.3z M531.2,22.8c-0.7,0-1.2,0.2-1.7,0.7s-0.7,1.1-0.8,2h4.8v-0.1
			c0-0.8-0.3-1.5-0.7-1.9S531.8,22.8,531.2,22.8z"/>
	</g>
	<g>
		<path class="st0" d="M109.5,127h-3v5.2h-1.7v-12.8h4.2c1.4,0,2.6,0.3,3.3,1s1.2,1.6,1.2,2.9c0,0.8-0.2,1.5-0.6,2.1s-1,1-1.8,1.3
			l3,5.4v0.1h-1.8L109.5,127z M106.5,125.6h2.6c0.8,0,1.5-0.2,2-0.7c0.5-0.4,0.7-1,0.7-1.7c0-0.8-0.2-1.4-0.7-1.8
			c-0.5-0.4-1.2-0.6-2-0.6h-2.6V125.6z"/>
		<path class="st0" d="M119.6,132.3c-1.3,0-2.3-0.4-3.1-1.3s-1.2-2-1.2-3.4v-0.3c0-0.9,0.2-1.8,0.5-2.5s0.9-1.3,1.5-1.7
			s1.3-0.6,2.1-0.6c1.2,0,2.2,0.4,2.9,1.2s1,2,1,3.5v0.7h-6.4c0,0.9,0.3,1.7,0.8,2.3s1.2,0.9,2,0.9c0.6,0,1.1-0.1,1.5-0.4
			s0.7-0.5,1-0.9l1,0.8C122.4,131.7,121.2,132.3,119.6,132.3z M119.4,123.8c-0.7,0-1.2,0.2-1.7,0.7s-0.7,1.1-0.8,2h4.8v-0.1
			c0-0.8-0.3-1.5-0.7-1.9S120,123.8,119.4,123.8z"/>
		<path class="st0" d="M126.7,122.7l0.1,1.2c0.7-0.9,1.7-1.4,2.8-1.4c2,0,3,1.1,3,3.4v6.3H131v-6.3c0-0.7-0.2-1.2-0.5-1.5
			s-0.8-0.5-1.4-0.5c-0.5,0-1,0.1-1.4,0.4s-0.7,0.7-0.9,1.1v6.8h-1.6v-9.5H126.7z"/>
		<path class="st0" d="M137.3,120.4v2.3h1.8v1.3h-1.8v5.9c0,0.4,0.1,0.7,0.2,0.9c0.2,0.2,0.4,0.3,0.8,0.3c0.2,0,0.4,0,0.8-0.1v1.3
			c-0.4,0.1-0.8,0.2-1.2,0.2c-0.7,0-1.3-0.2-1.6-0.7s-0.6-1.1-0.6-1.9v-5.9h-1.7v-1.3h1.7v-2.3H137.3z"/>
		<path class="st0" d="M146.8,132.2c-0.1-0.2-0.2-0.5-0.2-1c-0.8,0.8-1.7,1.2-2.7,1.2c-0.9,0-1.7-0.3-2.3-0.8s-0.9-1.2-0.9-2
			c0-1,0.4-1.8,1.1-2.3s1.8-0.8,3.2-0.8h1.6v-0.7c0-0.6-0.2-1-0.5-1.4s-0.8-0.5-1.5-0.5c-0.6,0-1.1,0.1-1.5,0.4s-0.6,0.6-0.6,1.1
			h-1.6c0-0.5,0.2-0.9,0.5-1.4s0.8-0.8,1.4-1.1s1.2-0.4,1.9-0.4c1.1,0,2,0.3,2.6,0.8s0.9,1.3,1,2.3v4.4c0,0.9,0.1,1.6,0.3,2.1v0.1
			H146.8z M144.1,130.9c0.5,0,1-0.1,1.5-0.4s0.8-0.6,1-1v-2h-1.3c-2,0-3,0.6-3,1.7c0,0.5,0.2,0.9,0.5,1.2S143.6,130.9,144.1,130.9z"
			/>
		<path class="st0" d="M152.5,132.2h-1.6v-13.5h1.6V132.2z"/>
		<path class="st0" d="M160.7,129.6c0-0.4-0.2-0.8-0.5-1s-0.9-0.5-1.7-0.6s-1.5-0.4-2-0.6s-0.8-0.5-1.1-0.9s-0.3-0.7-0.3-1.2
			c0-0.8,0.3-1.4,1-2s1.5-0.8,2.5-0.8c1.1,0,2,0.3,2.6,0.8s1,1.3,1,2.1h-1.6c0-0.4-0.2-0.8-0.6-1.2s-0.9-0.5-1.4-0.5
			c-0.6,0-1.1,0.1-1.4,0.4s-0.5,0.6-0.5,1c0,0.4,0.2,0.7,0.5,0.9s0.9,0.4,1.7,0.6s1.5,0.4,2,0.7s0.9,0.6,1.1,0.9s0.4,0.8,0.4,1.3
			c0,0.8-0.3,1.5-1,2s-1.6,0.8-2.6,0.8c-0.8,0-1.4-0.1-2-0.4s-1-0.6-1.4-1.1s-0.5-1-0.5-1.6h1.6c0,0.5,0.2,1,0.7,1.3
			s0.9,0.5,1.6,0.5c0.6,0,1.1-0.1,1.5-0.4S160.7,130.1,160.7,129.6z"/>
	</g>
	<g>
		<path class="st0" d="M339.5,126h-3v5.2h-1.7v-12.8h4.2c1.4,0,2.6,0.3,3.3,1s1.2,1.6,1.2,2.9c0,0.8-0.2,1.5-0.6,2.1s-1,1-1.8,1.3
			l3,5.4v0.1h-1.8L339.5,126z M336.5,124.6h2.6c0.8,0,1.5-0.2,2-0.7c0.5-0.4,0.7-1,0.7-1.7c0-0.8-0.2-1.4-0.7-1.8
			c-0.5-0.4-1.2-0.6-2-0.6h-2.6V124.6z"/>
		<path class="st0" d="M349.6,131.3c-1.3,0-2.3-0.4-3.1-1.3s-1.2-2-1.2-3.4v-0.3c0-0.9,0.2-1.8,0.5-2.5s0.9-1.3,1.5-1.7
			s1.3-0.6,2.1-0.6c1.2,0,2.2,0.4,2.9,1.2s1,2,1,3.5v0.7h-6.4c0,0.9,0.3,1.7,0.8,2.3s1.2,0.9,2,0.9c0.6,0,1.1-0.1,1.5-0.4
			s0.7-0.5,1-0.9l1,0.8C352.4,130.7,351.2,131.3,349.6,131.3z M349.4,122.8c-0.7,0-1.2,0.2-1.7,0.7s-0.7,1.1-0.8,2h4.8v-0.1
			c0-0.8-0.3-1.5-0.7-1.9S350,122.8,349.4,122.8z"/>
		<path class="st0" d="M360.7,128.6c0-0.4-0.2-0.8-0.5-1s-0.9-0.5-1.7-0.6s-1.5-0.4-2-0.6s-0.8-0.5-1.1-0.9s-0.3-0.7-0.3-1.2
			c0-0.8,0.3-1.4,1-2s1.5-0.8,2.5-0.8c1.1,0,2,0.3,2.6,0.8s1,1.3,1,2.1h-1.6c0-0.4-0.2-0.8-0.6-1.2s-0.9-0.5-1.4-0.5
			c-0.6,0-1.1,0.1-1.4,0.4s-0.5,0.6-0.5,1c0,0.4,0.2,0.7,0.5,0.9s0.9,0.4,1.7,0.6s1.5,0.4,2,0.7s0.9,0.6,1.1,0.9s0.4,0.8,0.4,1.3
			c0,0.8-0.3,1.5-1,2s-1.6,0.8-2.6,0.8c-0.8,0-1.4-0.1-2-0.4s-1-0.6-1.4-1.1s-0.5-1-0.5-1.6h1.6c0,0.5,0.2,1,0.7,1.3
			s0.9,0.5,1.6,0.5c0.6,0,1.1-0.1,1.5-0.4S360.7,129.1,360.7,128.6z"/>
		<path class="st0" d="M368.4,131.3c-1.3,0-2.3-0.4-3.1-1.3s-1.2-2-1.2-3.4v-0.3c0-0.9,0.2-1.8,0.5-2.5s0.9-1.3,1.5-1.7
			s1.3-0.6,2.1-0.6c1.2,0,2.2,0.4,2.9,1.2s1,2,1,3.5v0.7h-6.4c0,0.9,0.3,1.7,0.8,2.3s1.2,0.9,2,0.9c0.6,0,1.1-0.1,1.5-0.4
			s0.7-0.5,1-0.9l1,0.8C371.2,130.7,370,131.3,368.4,131.3z M368.2,122.8c-0.7,0-1.2,0.2-1.7,0.7s-0.7,1.1-0.8,2h4.8v-0.1
			c0-0.8-0.3-1.5-0.7-1.9S368.9,122.8,368.2,122.8z"/>
		<path class="st0" d="M378.6,123.1c-0.2,0-0.5-0.1-0.8-0.1c-1.1,0-1.8,0.5-2.2,1.4v6.8H374v-9.5h1.6l0,1.1c0.5-0.8,1.3-1.3,2.3-1.3
			c0.3,0,0.6,0,0.7,0.1V123.1z"/>
		<path class="st0" d="M383.4,129l2.4-7.3h1.7l-3.4,9.5h-1.2l-3.4-9.5h1.7L383.4,129z"/>
		<path class="st0" d="M394.7,131.2c-0.1-0.2-0.2-0.5-0.2-1c-0.8,0.8-1.7,1.2-2.7,1.2c-0.9,0-1.7-0.3-2.3-0.8s-0.9-1.2-0.9-2
			c0-1,0.4-1.8,1.1-2.3s1.8-0.8,3.2-0.8h1.6v-0.7c0-0.6-0.2-1-0.5-1.4s-0.8-0.5-1.5-0.5c-0.6,0-1.1,0.1-1.5,0.4s-0.6,0.6-0.6,1.1
			h-1.6c0-0.5,0.2-0.9,0.5-1.4s0.8-0.8,1.4-1.1s1.2-0.4,1.9-0.4c1.1,0,2,0.3,2.6,0.8s0.9,1.3,1,2.3v4.4c0,0.9,0.1,1.6,0.3,2.1v0.1
			H394.7z M392,129.9c0.5,0,1-0.1,1.5-0.4s0.8-0.6,1-1v-2h-1.3c-2,0-3,0.6-3,1.7c0,0.5,0.2,0.9,0.5,1.2S391.5,129.9,392,129.9z"/>
		<path class="st0" d="M400.8,119.4v2.3h1.8v1.3h-1.8v5.9c0,0.4,0.1,0.7,0.2,0.9c0.2,0.2,0.4,0.3,0.8,0.3c0.2,0,0.4,0,0.8-0.1v1.3
			c-0.4,0.1-0.8,0.2-1.2,0.2c-0.7,0-1.3-0.2-1.6-0.7s-0.6-1.1-0.6-1.9v-5.9h-1.7v-1.3h1.7v-2.3H400.8z"/>
		<path class="st0" d="M404.5,119.1c0-0.3,0.1-0.5,0.2-0.7s0.4-0.3,0.7-0.3s0.6,0.1,0.7,0.3s0.2,0.4,0.2,0.7s-0.1,0.5-0.2,0.7
			s-0.4,0.3-0.7,0.3s-0.6-0.1-0.7-0.3S404.5,119.4,404.5,119.1z M406.3,131.2h-1.6v-9.5h1.6V131.2z"/>
		<path class="st0" d="M408.4,126.3c0-0.9,0.2-1.8,0.5-2.5s0.9-1.3,1.5-1.7s1.4-0.6,2.2-0.6c1.3,0,2.3,0.4,3.1,1.3
			c0.8,0.9,1.2,2.1,1.2,3.6v0.1c0,0.9-0.2,1.8-0.5,2.5c-0.4,0.7-0.9,1.3-1.5,1.7s-1.4,0.6-2.3,0.6c-1.3,0-2.3-0.4-3.1-1.3
			s-1.2-2.1-1.2-3.6V126.3z M410.1,126.5c0,1.1,0.2,1.9,0.7,2.5s1.1,1,2,1c0.8,0,1.5-0.3,2-1s0.7-1.6,0.7-2.7c0-1-0.2-1.9-0.7-2.5
			s-1.2-1-2-1c-0.8,0-1.5,0.3-1.9,1S410.1,125.3,410.1,126.5z"/>
		<path class="st0" d="M420.7,121.7l0.1,1.2c0.7-0.9,1.7-1.4,2.8-1.4c2,0,3,1.1,3,3.4v6.3H425v-6.3c0-0.7-0.2-1.2-0.5-1.5
			c-0.3-0.3-0.8-0.5-1.4-0.5c-0.5,0-1,0.1-1.4,0.4s-0.7,0.7-0.9,1.1v6.8h-1.6v-9.5H420.7z"/>
		<path class="st0" d="M434.6,128.6c0-0.4-0.2-0.8-0.5-1c-0.3-0.2-0.9-0.5-1.7-0.6s-1.5-0.4-2-0.6c-0.5-0.2-0.8-0.5-1.1-0.9
			c-0.2-0.3-0.3-0.7-0.3-1.2c0-0.8,0.3-1.4,1-2c0.7-0.5,1.5-0.8,2.5-0.8c1.1,0,2,0.3,2.6,0.8s1,1.3,1,2.1h-1.6
			c0-0.4-0.2-0.8-0.6-1.2c-0.4-0.3-0.9-0.5-1.4-0.5c-0.6,0-1.1,0.1-1.4,0.4s-0.5,0.6-0.5,1c0,0.4,0.2,0.7,0.5,0.9s0.9,0.4,1.7,0.6
			c0.8,0.2,1.5,0.4,2,0.7s0.9,0.6,1.1,0.9c0.2,0.4,0.4,0.8,0.4,1.3c0,0.8-0.3,1.5-1,2s-1.6,0.8-2.6,0.8c-0.8,0-1.4-0.1-2-0.4
			s-1-0.6-1.4-1.1c-0.3-0.5-0.5-1-0.5-1.6h1.6c0,0.5,0.2,1,0.7,1.3s0.9,0.5,1.6,0.5c0.6,0,1.1-0.1,1.5-0.4S434.6,129.1,434.6,128.6z
			"/>
	</g>
	<g>
		<path class="st0" d="M354,220.2h-4.1v11.4h-1.7v-11.4h-4.1v-1.4h9.9V220.2z"/>
		<path class="st0" d="M357.3,223.3c0.7-0.9,1.7-1.3,2.8-1.3c2,0,3,1.1,3,3.4v6.3h-1.6v-6.3c0-0.7-0.2-1.2-0.5-1.5s-0.8-0.5-1.4-0.5
			c-0.5,0-1,0.1-1.4,0.4s-0.7,0.7-0.9,1.1v6.8h-1.6v-13.5h1.6V223.3z"/>
		<path class="st0" d="M371.5,231.7c-0.1-0.2-0.2-0.5-0.2-1c-0.8,0.8-1.7,1.2-2.7,1.2c-0.9,0-1.7-0.3-2.3-0.8s-0.9-1.2-0.9-2
			c0-1,0.4-1.8,1.1-2.3s1.8-0.8,3.2-0.8h1.6v-0.7c0-0.6-0.2-1-0.5-1.4s-0.8-0.5-1.5-0.5c-0.6,0-1.1,0.1-1.5,0.4s-0.6,0.6-0.6,1.1
			h-1.6c0-0.5,0.2-0.9,0.5-1.4s0.8-0.8,1.4-1.1s1.2-0.4,1.9-0.4c1.1,0,2,0.3,2.6,0.8s0.9,1.3,1,2.3v4.4c0,0.9,0.1,1.6,0.3,2.1v0.1
			H371.5z M368.8,230.4c0.5,0,1-0.1,1.5-0.4s0.8-0.6,1-1v-2h-1.3c-2,0-3,0.6-3,1.7c0,0.5,0.2,0.9,0.5,1.2S368.2,230.4,368.8,230.4z"
			/>
		<path class="st0" d="M376.9,222.2l0.1,1.2c0.7-0.9,1.7-1.4,2.8-1.4c2,0,3,1.1,3,3.4v6.3h-1.6v-6.3c0-0.7-0.2-1.2-0.5-1.5
			s-0.8-0.5-1.4-0.5c-0.5,0-1,0.1-1.4,0.4s-0.7,0.7-0.9,1.1v6.8h-1.6v-9.5H376.9z"/>
		<path class="st0" d="M388,227.3l-1,1.1v3.3h-1.6v-13.5h1.6v8.2l0.9-1l3-3.1h2l-3.7,4l4.1,5.5h-1.9L388,227.3z"/>
		<path class="st0" d="M403.1,225.3l3.3-6.4h1.9l-4.4,8v4.8h-1.7v-4.8l-4.4-8h1.9L403.1,225.3z"/>
		<path class="st0" d="M408.7,226.8c0-0.9,0.2-1.8,0.5-2.5s0.9-1.3,1.5-1.7s1.4-0.6,2.2-0.6c1.3,0,2.3,0.4,3.1,1.3s1.2,2.1,1.2,3.6
			v0.1c0,0.9-0.2,1.8-0.5,2.5s-0.9,1.3-1.5,1.7s-1.4,0.6-2.3,0.6c-1.3,0-2.3-0.4-3.1-1.3s-1.2-2.1-1.2-3.6V226.8z M410.3,227
			c0,1.1,0.2,1.9,0.7,2.5s1.1,1,2,1c0.8,0,1.5-0.3,2-1s0.7-1.6,0.7-2.7c0-1-0.2-1.9-0.7-2.5s-1.2-1-2-1c-0.8,0-1.5,0.3-1.9,1
			S410.3,225.8,410.3,227z"/>
		<path class="st0" d="M425.3,230.7c-0.6,0.7-1.6,1.1-2.8,1.1c-1,0-1.8-0.3-2.3-0.9s-0.8-1.5-0.8-2.6v-6.2h1.6v6.1
			c0,1.4,0.6,2.2,1.8,2.2c1.2,0,2.1-0.5,2.5-1.4v-6.9h1.6v9.5h-1.5L425.3,230.7z"/>
	</g>
	<g>
		<path class="st0" d="M858.3,220.2h-4.1v11.4h-1.7v-11.4h-4.1v-1.4h9.9V220.2z"/>
		<path class="st0" d="M861.6,223.3c0.7-0.9,1.7-1.3,2.8-1.3c2,0,3,1.1,3,3.4v6.3h-1.6v-6.3c0-0.7-0.2-1.2-0.5-1.5s-0.8-0.5-1.4-0.5
			c-0.5,0-1,0.1-1.4,0.4s-0.7,0.7-0.9,1.1v6.8h-1.6v-13.5h1.6V223.3z"/>
		<path class="st0" d="M875.7,231.7c-0.1-0.2-0.2-0.5-0.2-1c-0.8,0.8-1.7,1.2-2.7,1.2c-0.9,0-1.7-0.3-2.3-0.8s-0.9-1.2-0.9-2
			c0-1,0.4-1.8,1.1-2.3s1.8-0.8,3.2-0.8h1.6v-0.7c0-0.6-0.2-1-0.5-1.4s-0.8-0.5-1.5-0.5c-0.6,0-1.1,0.1-1.5,0.4s-0.6,0.6-0.6,1.1
			h-1.6c0-0.5,0.2-0.9,0.5-1.4s0.8-0.8,1.4-1.1s1.2-0.4,1.9-0.4c1.1,0,2,0.3,2.6,0.8s0.9,1.3,1,2.3v4.4c0,0.9,0.1,1.6,0.3,2.1v0.1
			H875.7z M873,230.4c0.5,0,1-0.1,1.5-0.4s0.8-0.6,1-1v-2h-1.3c-2,0-3,0.6-3,1.7c0,0.5,0.2,0.9,0.5,1.2S872.5,230.4,873,230.4z"/>
		<path class="st0" d="M881.2,222.2l0.1,1.2c0.7-0.9,1.7-1.4,2.8-1.4c2,0,3,1.1,3,3.4v6.3h-1.6v-6.3c0-0.7-0.2-1.2-0.5-1.5
			s-0.8-0.5-1.4-0.5c-0.5,0-1,0.1-1.4,0.4s-0.7,0.7-0.9,1.1v6.8h-1.6v-9.5H881.2z"/>
		<path class="st0" d="M892.2,227.3l-1,1.1v3.3h-1.6v-13.5h1.6v8.2l0.9-1l3-3.1h2l-3.7,4l4.1,5.5h-1.9L892.2,227.3z"/>
		<path class="st0" d="M907.3,225.3l3.3-6.4h1.9l-4.4,8v4.8h-1.7v-4.8l-4.4-8h1.9L907.3,225.3z"/>
		<path class="st0" d="M913,226.8c0-0.9,0.2-1.8,0.5-2.5s0.9-1.3,1.5-1.7s1.4-0.6,2.2-0.6c1.3,0,2.3,0.4,3.1,1.3s1.2,2.1,1.2,3.6
			v0.1c0,0.9-0.2,1.8-0.5,2.5s-0.9,1.3-1.5,1.7s-1.4,0.6-2.3,0.6c-1.3,0-2.3-0.4-3.1-1.3s-1.2-2.1-1.2-3.6V226.8z M914.6,227
			c0,1.1,0.2,1.9,0.7,2.5s1.1,1,2,1c0.8,0,1.5-0.3,2-1s0.7-1.6,0.7-2.7c0-1-0.2-1.9-0.7-2.5s-1.2-1-2-1c-0.8,0-1.5,0.3-1.9,1
			S914.6,225.8,914.6,227z"/>
		<path class="st0" d="M929.5,230.7c-0.6,0.7-1.6,1.1-2.8,1.1c-1,0-1.8-0.3-2.3-0.9s-0.8-1.5-0.8-2.6v-6.2h1.6v6.1
			c0,1.4,0.6,2.2,1.8,2.2c1.2,0,2.1-0.5,2.5-1.4v-6.9h1.6v9.5h-1.5L929.5,230.7z"/>
	</g>
	<g>
		<path class="st0" d="M625.4,119.9h-4.1v11.4h-1.7v-11.4h-4.1v-1.4h9.9V119.9z"/>
		<path class="st0" d="M625.8,126.5c0-0.9,0.2-1.8,0.5-2.5s0.9-1.3,1.5-1.7s1.4-0.6,2.2-0.6c1.3,0,2.3,0.4,3.1,1.3s1.2,2.1,1.2,3.6
			v0.1c0,0.9-0.2,1.8-0.5,2.5s-0.9,1.3-1.5,1.7s-1.4,0.6-2.3,0.6c-1.3,0-2.3-0.4-3.1-1.3s-1.2-2.1-1.2-3.6V126.5z M627.4,126.7
			c0,1.1,0.2,1.9,0.7,2.5s1.1,1,2,1c0.8,0,1.5-0.3,2-1s0.7-1.6,0.7-2.7c0-1-0.2-1.9-0.7-2.5s-1.2-1-2-1c-0.8,0-1.4,0.3-1.9,1
			S627.4,125.5,627.4,126.7z"/>
		<path class="st0" d="M642.3,130.4c-0.6,0.7-1.6,1.1-2.8,1.1c-1,0-1.8-0.3-2.3-0.9s-0.8-1.5-0.8-2.6v-6.2h1.6v6.1
			c0,1.4,0.6,2.2,1.8,2.2c1.2,0,2.1-0.5,2.5-1.4v-6.9h1.6v9.5h-1.5L642.3,130.4z"/>
		<path class="st0" d="M651,123.3c-0.2,0-0.5-0.1-0.8-0.1c-1.1,0-1.8,0.5-2.2,1.4v6.8h-1.6v-9.5h1.6l0,1.1c0.5-0.8,1.3-1.3,2.3-1.3
			c0.3,0,0.6,0,0.7,0.1V123.3z"/>
		<path class="st0" d="M658,128.8c0-0.4-0.2-0.8-0.5-1s-0.9-0.5-1.7-0.6s-1.5-0.4-2-0.6s-0.8-0.5-1.1-0.9s-0.3-0.7-0.3-1.2
			c0-0.8,0.3-1.4,1-2s1.5-0.8,2.5-0.8c1.1,0,2,0.3,2.6,0.8s1,1.3,1,2.1h-1.6c0-0.4-0.2-0.8-0.6-1.2s-0.9-0.5-1.4-0.5
			c-0.6,0-1.1,0.1-1.4,0.4s-0.5,0.6-0.5,1c0,0.4,0.2,0.7,0.5,0.9s0.9,0.4,1.7,0.6s1.5,0.4,2,0.7s0.9,0.6,1.1,0.9s0.4,0.8,0.4,1.3
			c0,0.8-0.3,1.5-1,2s-1.6,0.8-2.6,0.8c-0.8,0-1.4-0.1-2-0.4s-1-0.6-1.4-1.1s-0.5-1-0.5-1.6h1.6c0,0.5,0.2,1,0.7,1.3
			s0.9,0.5,1.6,0.5c0.6,0,1.1-0.1,1.5-0.4S658,129.2,658,128.8z"/>
	</g>
	<g>
		<path class="st0" d="M868.5,127.3c-0.2,1.4-0.7,2.4-1.5,3.1s-2,1.1-3.4,1.1c-1.5,0-2.7-0.5-3.6-1.6s-1.4-2.5-1.4-4.4v-1.2
			c0-1.2,0.2-2.2,0.6-3.1s1-1.6,1.8-2.1s1.7-0.7,2.7-0.7c1.4,0,2.4,0.4,3.3,1.1s1.3,1.8,1.4,3.2h-1.7c-0.1-1-0.5-1.8-1-2.2
			s-1.2-0.7-2.1-0.7c-1.1,0-1.9,0.4-2.5,1.2c-0.6,0.8-0.9,1.9-0.9,3.4v1.2c0,1.4,0.3,2.5,0.9,3.3s1.4,1.2,2.4,1.2
			c0.9,0,1.7-0.2,2.2-0.6s0.8-1.2,1-2.2H868.5z"/>
		<path class="st0" d="M870.1,126.6c0-0.9,0.2-1.8,0.5-2.5s0.9-1.3,1.5-1.7s1.4-0.6,2.2-0.6c1.3,0,2.3,0.4,3.1,1.3s1.2,2.1,1.2,3.6
			v0.1c0,0.9-0.2,1.8-0.5,2.5s-0.9,1.3-1.5,1.7s-1.4,0.6-2.3,0.6c-1.3,0-2.3-0.4-3.1-1.3s-1.2-2.1-1.2-3.6V126.6z M871.7,126.7
			c0,1.1,0.2,1.9,0.7,2.5s1.1,1,2,1c0.8,0,1.5-0.3,2-1s0.7-1.6,0.7-2.7c0-1-0.2-1.9-0.7-2.5s-1.2-1-2-1c-0.8,0-1.4,0.3-1.9,1
			S871.7,125.6,871.7,126.7z"/>
		<path class="st0" d="M882.3,121.9l0.1,1.2c0.7-0.9,1.7-1.4,2.8-1.4c2,0,3,1.1,3,3.4v6.3h-1.6v-6.3c0-0.7-0.2-1.2-0.5-1.5
			s-0.8-0.5-1.4-0.5c-0.5,0-1,0.1-1.4,0.4s-0.7,0.7-0.9,1.1v6.8h-1.6v-9.5H882.3z"/>
		<path class="st0" d="M892.9,119.6v2.3h1.8v1.3h-1.8v5.9c0,0.4,0.1,0.7,0.2,0.9c0.2,0.2,0.4,0.3,0.8,0.3c0.2,0,0.4,0,0.8-0.1v1.3
			c-0.4,0.1-0.8,0.2-1.2,0.2c-0.7,0-1.3-0.2-1.6-0.7s-0.6-1.1-0.6-1.9v-5.9h-1.7v-1.3h1.7v-2.3H892.9z"/>
		<path class="st0" d="M902.5,131.4c-0.1-0.2-0.2-0.5-0.2-1c-0.8,0.8-1.7,1.2-2.7,1.2c-0.9,0-1.7-0.3-2.3-0.8s-0.9-1.2-0.9-2
			c0-1,0.4-1.8,1.1-2.3s1.8-0.8,3.2-0.8h1.6v-0.7c0-0.6-0.2-1-0.5-1.4s-0.8-0.5-1.5-0.5c-0.6,0-1.1,0.1-1.5,0.4s-0.6,0.6-0.6,1.1
			h-1.6c0-0.5,0.2-0.9,0.5-1.4s0.8-0.8,1.4-1.1s1.2-0.4,1.9-0.4c1.1,0,2,0.3,2.6,0.8s0.9,1.3,1,2.3v4.4c0,0.9,0.1,1.6,0.3,2.1v0.1
			H902.5z M899.8,130.2c0.5,0,1-0.1,1.5-0.4s0.8-0.6,1-1v-2H901c-2,0-3,0.6-3,1.7c0,0.5,0.2,0.9,0.5,1.2S899.3,130.2,899.8,130.2z"
			/>
		<path class="st0" d="M910.2,130.2c0.6,0,1.1-0.2,1.5-0.5s0.7-0.8,0.7-1.3h1.5c0,0.5-0.2,1.1-0.6,1.6s-0.8,0.9-1.4,1.2
			s-1.2,0.4-1.8,0.4c-1.3,0-2.3-0.4-3.1-1.3s-1.1-2-1.1-3.5v-0.3c0-0.9,0.2-1.7,0.5-2.5s0.8-1.3,1.5-1.7s1.4-0.6,2.3-0.6
			c1.1,0,2,0.3,2.7,1s1.1,1.5,1.1,2.5h-1.5c0-0.6-0.3-1.1-0.7-1.5s-0.9-0.6-1.6-0.6c-0.8,0-1.5,0.3-1.9,0.9s-0.7,1.5-0.7,2.6v0.3
			c0,1.1,0.2,1.9,0.7,2.5S909.4,130.2,910.2,130.2z"/>
		<path class="st0" d="M918,119.6v2.3h1.8v1.3H918v5.9c0,0.4,0.1,0.7,0.2,0.9c0.2,0.2,0.4,0.3,0.8,0.3c0.2,0,0.4,0,0.8-0.1v1.3
			c-0.4,0.1-0.8,0.2-1.2,0.2c-0.7,0-1.3-0.2-1.6-0.7s-0.6-1.1-0.6-1.9v-5.9h-1.7v-1.3h1.7v-2.3H918z"/>
	</g>
</g>
</svg>
