<?xml version="1.0" encoding="utf-8"?>
<!-- Generator: Adobe Illustrator 24.2.1, SVG Export Plug-In . SVG Version: 6.00 Build 0)  -->
<svg version="1.1" xmlns="http://www.w3.org/2000/svg" xmlns:xlink="http://www.w3.org/1999/xlink" x="0px" y="0px"
	 viewBox="0 0 1920 3181.3" style="enable-background:new 0 0 1920 3181.3;" xml:space="preserve">
<style type="text/css">
	.st0{fill:#FFFFFF;}
	.st1{fill:#E6E6E6;}
	.st2{fill:#CCCCCC;}
	.st3{fill:#B3B3B3;}
	.st4{fill:#808080;}
	.st5{stroke:#000000;stroke-miterlimit:10;}
	.st6{fill:none;stroke:#CCCCCC;stroke-width:4;stroke-miterlimit:10;}
</style>
<g id="bg">
</g>
<g id="Layer_2">
	<rect class="st0" width="1920" height="85.7"/>
	<rect y="85.7" class="st1" width="1920" height="700"/>
	<rect x="31.7" y="27.1" class="st2" width="243.4" height="34.2"/>
	<rect x="875.1" y="27.1" class="st2" width="168.4" height="34.2"/>
	<rect x="1075.1" y="27.1" class="st2" width="168.4" height="34.2"/>
	<rect x="1271.2" y="27.1" class="st2" width="168.4" height="34.2"/>
	<rect x="1462" y="27.1" class="st2" width="168.4" height="34.2"/>
	<rect x="1713.3" y="27.1" class="st2" width="168.4" height="34.2"/>
	<rect x="1668.2" y="27.1" class="st2" width="7.2" height="34.2"/>
	<line x1="0" y1="785.7" x2="1920" y2="85.7"/>
	<line x1="0" y1="85.7" x2="1920" y2="785.7"/>
	<rect x="159.3" y="508.6" class="st2" width="681.6" height="34.2"/>
	<rect x="159.3" y="361.3" class="st2" width="681.6" height="78.9"/>
	<rect x="159.3" y="245.5" class="st2" width="681.6" height="78.9"/>
	<rect x="159.3" y="129.7" class="st2" width="681.6" height="78.9"/>
	<rect x="159.3" y="1009.3" class="st2" width="681.6" height="78.9"/>
	<rect x="159.3" y="1665" class="st2" width="240" height="49.6"/>
	<rect x="434.4" y="1665" class="st2" width="163.4" height="49.6"/>
	<rect x="804.3" y="1279.3" class="st2" width="311.4" height="49.6"/>
	<rect x="845.1" y="1371.8" class="st2" width="229.7" height="49.6"/>
	<rect x="804.3" y="1464.3" class="st2" width="311.4" height="49.6"/>
	<rect x="236.3" y="1279.3" class="st2" width="311.4" height="49.6"/>
	<rect x="277.1" y="1371.8" class="st2" width="229.7" height="49.6"/>
	<rect x="236.3" y="1464.3" class="st2" width="311.4" height="49.6"/>
	<rect x="1367.4" y="1279.3" class="st2" width="311.4" height="49.6"/>
	<rect x="1408.3" y="1371.8" class="st2" width="229.7" height="49.6"/>
	<rect x="1367.4" y="1464.3" class="st2" width="311.4" height="49.6"/>
	<rect x="159.3" y="573.1" class="st2" width="243.4" height="34.2"/>
	<path class="st0" d="M0,613.7l64,21.2c64,21.2,192,63.6,320,91.8c128,28.7,256,42,384,49.5c128,7,256,7,384-21.2
		c128-28.7,256-84.4,384-98.9c128-14.6,256,14.6,320,28.2l64,14.2v87.2h-64c-64,0-192,0-320,0s-256,0-384,0s-256,0-384,0
		s-256,0-384,0s-256,0-320,0H0V613.7z"/>
	<rect x="1171.1" y="146.8" class="st2" width="505.3" height="443.4"/>
	<rect x="1202.2" y="169.2" class="st3" width="415.6" height="49.4"/>
	<rect x="1410" y="275" class="st3" width="207.8" height="49.4"/>
	<rect x="1410" y="361.3" class="st3" width="207.8" height="49.4"/>
	<rect x="1410" y="456.2" class="st3" width="207.8" height="49.4"/>
	<rect x="1201.1" y="269.3" class="st3" width="177.7" height="236.3"/>
	<line x1="1378.9" y1="269.3" x2="1201.1" y2="505.7"/>
	<line x1="1378.9" y1="505.7" x2="1201.1" y2="269.3"/>
	<g>
		<rect x="475.4" y="2044.3" class="st2" width="168.4" height="34.2"/>
		<rect x="675.4" y="2044.3" class="st2" width="168.4" height="34.2"/>
		<rect x="876.7" y="2044.3" class="st2" width="168.4" height="34.2"/>
		<rect x="1080.5" y="2044.3" class="st2" width="168.4" height="34.2"/>
		<rect x="1277.2" y="2044.3" class="st2" width="168.4" height="34.2"/>
		<rect x="475.4" y="2378.1" class="st2" width="168.4" height="34.2"/>
		<rect x="675.4" y="2378.1" class="st2" width="168.4" height="34.2"/>
		<rect x="876.7" y="2378.1" class="st2" width="168.4" height="34.2"/>
		<rect x="1080.5" y="2378.1" class="st2" width="168.4" height="34.2"/>
		<rect x="1277.2" y="2378.1" class="st2" width="168.4" height="34.2"/>
		<rect x="475.4" y="1898.8" class="st2" width="970.2" height="98.4"/>
		<rect x="473.4" y="2110.6" class="st3" width="170.4" height="236.3"/>
		<line x1="643.8" y1="2110.6" x2="473.4" y2="2346.9"/>
		<line x1="643.8" y1="2346.9" x2="473.4" y2="2110.6"/>
		<rect x="674.4" y="2110.6" class="st3" width="170.4" height="236.3"/>
		<line x1="844.8" y1="2110.6" x2="674.4" y2="2346.9"/>
		<line x1="844.8" y1="2346.9" x2="674.4" y2="2110.6"/>
		<rect x="875.7" y="2110.6" class="st3" width="170.4" height="236.3"/>
		<line x1="1046.1" y1="2110.6" x2="875.7" y2="2346.9"/>
		<line x1="1046.1" y1="2346.9" x2="875.7" y2="2110.6"/>
		<rect x="1079.5" y="2110.6" class="st3" width="170.4" height="236.3"/>
		<line x1="1249.9" y1="2110.6" x2="1079.5" y2="2346.9"/>
		<line x1="1249.9" y1="2346.9" x2="1079.5" y2="2110.6"/>
		<rect x="1276.2" y="2110.6" class="st3" width="170.4" height="236.3"/>
		<line x1="1446.6" y1="2110.6" x2="1276.2" y2="2346.9"/>
		<line x1="1446.6" y1="2346.9" x2="1276.2" y2="2110.6"/>
	</g>
	<rect y="782" class="st0" width="1920" height="35.6"/>
	<line x1="31.7" y1="27.1" x2="275.1" y2="61.3"/>
	<line x1="31.7" y1="61.3" x2="275.1" y2="27.1"/>
	<g>
		<rect x="0" y="2634.9" class="st2" width="1920" height="489.1"/>
		<rect x="0" y="3124" class="st3" width="1920" height="57.3"/>
		<g>
			<rect x="66.2" y="2707.8" class="st3" width="281" height="79.5"/>
			<line x1="69" y1="2707.1" x2="350" y2="2786.6"/>
			<line x1="69" y1="2786.6" x2="350" y2="2707.1"/>
		</g>
		<rect x="60.1" y="3069.5" class="st3" width="415.3" height="34.2"/>
		<rect x="1742.6" y="3069.5" class="st3" width="118.3" height="34.2"/>
		<rect x="1601.9" y="3069.5" class="st3" width="118.3" height="34.2"/>
		<rect x="1465.1" y="3069.5" class="st3" width="118.3" height="34.2"/>
		<rect x="816.6" y="2701.9" class="st3" width="144.3" height="60.5"/>
		<rect x="816.6" y="2798.4" class="st3" width="169.5" height="34.2"/>
		<rect x="816.6" y="2859.6" class="st3" width="144.3" height="34.2"/>
		<rect x="816.6" y="2928.6" class="st3" width="201.8" height="34.2"/>
		<rect x="1184.8" y="2701.9" class="st3" width="144.3" height="60.5"/>
		<rect x="1184.8" y="2798.4" class="st3" width="169.5" height="34.2"/>
		<rect x="1184.8" y="2859.6" class="st3" width="144.3" height="34.2"/>
		<rect x="1184.8" y="2928.6" class="st3" width="201.8" height="34.2"/>
		<rect x="1560.2" y="2701.9" class="st3" width="144.3" height="60.5"/>
		<rect x="1560.2" y="2798.4" class="st3" width="169.5" height="34.2"/>
		<rect x="1560.2" y="2859.6" class="st3" width="144.3" height="34.2"/>
		<rect x="1560.2" y="2928.6" class="st3" width="201.8" height="34.2"/>
		<rect x="900.1" y="3135.5" class="st4" width="118.3" height="34.2"/>
		<g>
			<rect x="860.4" y="3069.5" class="st3" width="53.6" height="34.2"/>
			<rect x="932.4" y="3069.5" class="st3" width="53.6" height="34.2"/>
			<rect x="1006" y="3069.5" class="st3" width="53.6" height="34.2"/>
		</g>
		<line class="st5" x1="60.1" y1="3042" x2="1859.9" y2="3042"/>
	</g>
	<g>
		<rect x="718" y="1165.3" class="st2" width="484.1" height="78.9"/>
		<rect x="718" y="1551.2" class="st2" width="484.1" height="78.9"/>
		<rect x="718" y="1165.3" class="st6" width="484.1" height="462.6"/>
	</g>
	<g>
		<rect x="157.3" y="1165.3" class="st2" width="484.1" height="78.9"/>
		<rect x="157.3" y="1550" class="st2" width="484.1" height="78.9"/>
		<rect x="157.3" y="1165.3" class="st6" width="484.1" height="462.6"/>
	</g>
	<g>
		<rect x="1277.2" y="1165.3" class="st2" width="484.1" height="78.9"/>
		<rect x="1277.2" y="1546.5" class="st2" width="484.1" height="78.9"/>
		<rect x="1277.2" y="1165.3" class="st6" width="484.1" height="462.6"/>
	</g>
</g>
</svg>
