<?xml version="1.0" encoding="utf-8"?>
<!-- Generator: Adobe Illustrator 24.2.1, SVG Export Plug-In . SVG Version: 6.00 Build 0)  -->
<svg version="1.1" xmlns="http://www.w3.org/2000/svg" xmlns:xlink="http://www.w3.org/1999/xlink" x="0px" y="0px"
	 viewBox="0 0 768 4470.8" style="enable-background:new 0 0 768 4470.8;" xml:space="preserve">
<style type="text/css">
	.st0{fill:#CCCCCC;}
	.st1{fill:#B3B3B3;}
	.st2{fill:#FFFFFF;}
	.st3{fill:#E6E6E6;}
	.st4{fill:#808080;}
	.st5{stroke:#000000;stroke-miterlimit:10;}
	.st6{fill:none;stroke:#CCCCCC;stroke-width:4;stroke-miterlimit:10;}
</style>
<g id="bg">
</g>
<g id="Layer_2">
	<g>
		<rect x="57.2" y="2741.8" class="st0" width="113.6" height="23.1"/>
		<rect x="192.1" y="2741.8" class="st0" width="113.6" height="23.1"/>
		<rect x="327.8" y="2741.8" class="st0" width="113.6" height="23.1"/>
		<rect x="465.3" y="2741.8" class="st0" width="113.6" height="23.1"/>
		<rect x="597.9" y="2741.8" class="st0" width="113.6" height="23.1"/>
		<rect x="57.2" y="2966.9" class="st0" width="113.6" height="23.1"/>
		<rect x="192.1" y="2966.9" class="st0" width="113.6" height="23.1"/>
		<rect x="327.8" y="2966.9" class="st0" width="113.6" height="23.1"/>
		<rect x="465.3" y="2966.9" class="st0" width="113.6" height="23.1"/>
		<rect x="597.9" y="2966.9" class="st0" width="113.6" height="23.1"/>
		<rect x="57.2" y="2643.7" class="st0" width="654.3" height="66.3"/>
		<rect x="55.8" y="2786.5" class="st1" width="114.9" height="159.4"/>
		<line x1="170.8" y1="2786.5" x2="55.8" y2="2945.9"/>
		<line x1="170.8" y1="2945.9" x2="55.8" y2="2786.5"/>
		<rect x="191.4" y="2786.5" class="st1" width="114.9" height="159.4"/>
		<line x1="306.3" y1="2786.5" x2="191.4" y2="2945.9"/>
		<line x1="306.3" y1="2945.9" x2="191.4" y2="2786.5"/>
		<rect x="327.2" y="2786.5" class="st1" width="114.9" height="159.4"/>
		<line x1="442.1" y1="2786.5" x2="327.2" y2="2945.9"/>
		<line x1="442.1" y1="2945.9" x2="327.2" y2="2786.5"/>
		<rect x="464.6" y="2786.5" class="st1" width="114.9" height="159.4"/>
		<line x1="579.5" y1="2786.5" x2="464.6" y2="2945.9"/>
		<line x1="579.5" y1="2945.9" x2="464.6" y2="2786.5"/>
		<rect x="597.2" y="2786.5" class="st1" width="114.9" height="159.4"/>
		<line x1="712.2" y1="2786.5" x2="597.2" y2="2945.9"/>
		<line x1="712.2" y1="2945.9" x2="597.2" y2="2786.5"/>
	</g>
	<g>
		<rect class="st2" width="768" height="70.4"/>
		<rect y="70.4" class="st3" width="768" height="819.8"/>
		<rect x="12.7" y="10.8" class="st0" width="97.4" height="37.6"/>
		<rect x="625.2" y="18.2" class="st0" width="44.1" height="9"/>
		<rect x="625.2" y="30.9" class="st0" width="44.1" height="9"/>
		<rect x="625.2" y="43.3" class="st0" width="44.1" height="9"/>
		<line x1="0" y1="890.2" x2="768" y2="70.4"/>
		<line x1="0" y1="70.4" x2="768" y2="890.2"/>
		<rect x="42.3" y="381.2" class="st0" width="487.8" height="24.5"/>
		<rect x="42.3" y="275.7" class="st0" width="487.8" height="56.5"/>
		<rect x="42.3" y="192.9" class="st0" width="487.8" height="56.5"/>
		<rect x="42.3" y="110" class="st0" width="487.8" height="56.5"/>
		<rect x="42.3" y="427.4" class="st0" width="174.2" height="24.5"/>
		<path class="st2" d="M0,818.4l25.6,8.5c25.6,8.5,76.8,25.4,128,36.7c51.2,11.5,102.4,16.8,153.6,19.8
			c51.2,2.8,102.4,2.8,153.6-8.5c51.2-11.5,102.4-33.8,153.6-39.6c51.2-5.8,102.4,5.8,128,11.3l25.6,5.7v34.9h-25.6
			c-25.6,0-76.8,0-128,0c-51.2,0-102.4,0-153.6,0s-102.4,0-153.6,0s-102.4,0-153.6,0s-102.4,0-128,0H0V818.4z"/>
		<rect x="40.7" y="501.1" class="st0" width="665.9" height="251.9"/>
		<rect x="58.4" y="513.8" class="st1" width="236.1" height="28.1"/>
		<rect x="378.1" y="574" class="st1" width="240.3" height="28.1"/>
		<rect x="378.1" y="623" class="st1" width="240.3" height="28.1"/>
		<rect x="378.1" y="676.9" class="st1" width="240.3" height="28.1"/>
		<rect x="57.8" y="570.7" class="st1" width="271.5" height="134.3"/>
		<line x1="329.2" y1="570.7" x2="57.8" y2="705"/>
		<line x1="329.2" y1="705" x2="57.8" y2="570.7"/>
		<rect y="885.9" class="st2" width="768" height="41.6"/>
		<line x1="12" y1="10.8" x2="109.4" y2="48.4"/>
		<line x1="12" y1="48.4" x2="109.4" y2="10.8"/>
	</g>
	<g>
		<rect x="0" y="3123" class="st0" width="768" height="1308.3"/>
		<rect y="4431.3" class="st1" width="768" height="39.5"/>
		<g>
			<rect x="26.5" y="3152.5" class="st1" width="223.2" height="63.2"/>
			<line x1="28.7" y1="3151.9" x2="251.9" y2="3215.1"/>
			<line x1="28.7" y1="3215.1" x2="251.9" y2="3151.9"/>
		</g>
		<rect x="245.9" y="4252" class="st1" width="276.2" height="22.8"/>
		<g>
			<rect x="436.4" y="4357.7" class="st1" width="78.7" height="22.8"/>
			<rect x="342.9" y="4357.7" class="st1" width="78.7" height="22.8"/>
			<rect x="251.9" y="4357.7" class="st1" width="78.7" height="22.8"/>
		</g>
		<g>
			<rect x="26" y="3264.1" class="st1" width="139.5" height="58.4"/>
			<rect x="26" y="3357.3" class="st1" width="163.8" height="33.1"/>
			<rect x="26" y="3416.6" class="st1" width="139.5" height="33.1"/>
			<rect x="26" y="3483.2" class="st1" width="195" height="33.1"/>
		</g>
		<g>
			<rect x="26" y="3563.5" class="st1" width="139.5" height="58.4"/>
			<rect x="26" y="3656.8" class="st1" width="163.8" height="33.1"/>
			<rect x="26" y="3716" class="st1" width="139.5" height="33.1"/>
			<rect x="26" y="3782.6" class="st1" width="195" height="33.1"/>
		</g>
		<g>
			<rect x="26" y="3875.1" class="st1" width="139.5" height="58.4"/>
			<rect x="26" y="3968.4" class="st1" width="163.8" height="33.1"/>
			<rect x="26" y="4027.6" class="st1" width="139.5" height="33.1"/>
			<rect x="26" y="4094.2" class="st1" width="195" height="33.1"/>
		</g>
		<rect x="360" y="4439.2" class="st4" width="47.3" height="23.6"/>
		<g>
			<rect x="317.8" y="4303.7" class="st1" width="35.7" height="22.8"/>
			<rect x="365.7" y="4303.7" class="st1" width="35.7" height="22.8"/>
			<rect x="414.6" y="4303.7" class="st1" width="35.7" height="22.8"/>
		</g>
		<line class="st5" x1="24" y1="4209.7" x2="744" y2="4209.7"/>
	</g>
	<g>
		<rect x="66.5" y="1006.1" class="st0" width="387.8" height="44.9"/>
		<rect x="66.5" y="2456.9" class="st0" width="225.8" height="46.6"/>
		<rect x="325.3" y="2456.9" class="st0" width="153.7" height="46.6"/>
		<rect x="170.8" y="1193.1" class="st0" width="416.1" height="42.7"/>
		<rect x="225.4" y="1272.9" class="st0" width="307" height="42.7"/>
		<rect x="170.8" y="1352.6" class="st0" width="416.1" height="42.7"/>
		<g>
			<rect x="65.3" y="1094.9" class="st0" width="646.8" height="68"/>
			<rect x="65.3" y="1426.4" class="st0" width="646.8" height="68"/>
			<rect x="65.3" y="1094.9" class="st6" width="646.8" height="398.7"/>
		</g>
		<rect x="170.8" y="1645.4" class="st0" width="416.1" height="42.7"/>
		<rect x="225.4" y="1725.1" class="st0" width="307" height="42.7"/>
		<rect x="170.8" y="1804.8" class="st0" width="416.1" height="42.7"/>
		<g>
			<rect x="65.3" y="1547.1" class="st0" width="646.8" height="68"/>
			<rect x="65.3" y="1878.6" class="st0" width="646.8" height="68"/>
			<rect x="65.3" y="1547.1" class="st6" width="646.8" height="398.7"/>
		</g>
		<rect x="170.8" y="2099.1" class="st0" width="416.1" height="42.7"/>
		<rect x="225.4" y="2178.9" class="st0" width="307" height="42.7"/>
		<rect x="170.8" y="2258.6" class="st0" width="416.1" height="42.7"/>
		<g>
			<rect x="65.3" y="2000.9" class="st0" width="646.8" height="68"/>
			<rect x="65.3" y="2332.4" class="st0" width="646.8" height="68"/>
			<rect x="65.3" y="2000.9" class="st6" width="646.8" height="398.7"/>
		</g>
	</g>
</g>
</svg>
