<?xml version="1.0" encoding="utf-8"?>
<!-- Generator: Adobe Illustrator 24.2.1, SVG Export Plug-In . SVG Version: 6.00 Build 0)  -->
<svg version="1.1" xmlns="http://www.w3.org/2000/svg" xmlns:xlink="http://www.w3.org/1999/xlink" x="0px" y="0px"
	 viewBox="0 0 1024 2264.1" style="enable-background:new 0 0 1024 2264.1;" xml:space="preserve">
<style type="text/css">
	.st0{fill:#CCCCCC;}
	.st1{fill:#B3B3B3;}
	.st2{fill:#FFFFFF;}
	.st3{fill:#E6E6E6;}
	.st4{fill:#808080;}
	.st5{stroke:#000000;stroke-miterlimit:10;}
	.st6{fill:none;stroke:#CCCCCC;stroke-width:4;stroke-miterlimit:10;}
</style>
<g id="bg">
</g>
<g id="Layer_2">
	<g>
		<rect x="67.2" y="1323.1" class="st0" width="154.6" height="31.4"/>
		<rect x="250.8" y="1323.1" class="st0" width="154.6" height="31.4"/>
		<rect x="435.6" y="1323.1" class="st0" width="154.6" height="31.4"/>
		<rect x="622.6" y="1323.1" class="st0" width="154.6" height="31.4"/>
		<rect x="803.1" y="1323.1" class="st0" width="154.6" height="31.4"/>
		<rect x="67.2" y="1629.5" class="st0" width="154.6" height="31.4"/>
		<rect x="250.8" y="1629.5" class="st0" width="154.6" height="31.4"/>
		<rect x="435.6" y="1629.5" class="st0" width="154.6" height="31.4"/>
		<rect x="622.6" y="1629.5" class="st0" width="154.6" height="31.4"/>
		<rect x="803.1" y="1629.5" class="st0" width="154.6" height="31.4"/>
		<rect x="67.2" y="1189.6" class="st0" width="890.5" height="90.3"/>
		<rect x="65.4" y="1384" class="st1" width="156.4" height="216.9"/>
		<line x1="221.8" y1="1384" x2="65.4" y2="1600.9"/>
		<line x1="221.8" y1="1600.9" x2="65.4" y2="1384"/>
		<rect x="249.9" y="1384" class="st1" width="156.4" height="216.9"/>
		<line x1="406.3" y1="1384" x2="249.9" y2="1600.9"/>
		<line x1="406.3" y1="1600.9" x2="249.9" y2="1384"/>
		<rect x="434.7" y="1384" class="st1" width="156.4" height="216.9"/>
		<line x1="591.1" y1="1384" x2="434.7" y2="1600.9"/>
		<line x1="591.1" y1="1600.9" x2="434.7" y2="1384"/>
		<rect x="621.7" y="1384" class="st1" width="156.4" height="216.9"/>
		<line x1="778.1" y1="1384" x2="621.7" y2="1600.9"/>
		<line x1="778.1" y1="1600.9" x2="621.7" y2="1384"/>
		<rect x="802.2" y="1384" class="st1" width="156.4" height="216.9"/>
		<line x1="958.6" y1="1384" x2="802.2" y2="1600.9"/>
		<line x1="958.6" y1="1600.9" x2="802.2" y2="1384"/>
	</g>
	<g>
		<rect class="st2" width="1024" height="45.7"/>
		<rect y="45.7" class="st3" width="1024" height="479.5"/>
		<rect x="16.9" y="14.4" class="st0" width="129.8" height="18.2"/>
		<rect x="466.7" y="14.4" class="st0" width="89.8" height="18.2"/>
		<rect x="573.4" y="14.4" class="st0" width="89.8" height="18.2"/>
		<rect x="678" y="14.4" class="st0" width="89.8" height="18.2"/>
		<rect x="779.7" y="14.4" class="st0" width="89.8" height="18.2"/>
		<rect x="913.8" y="14.4" class="st0" width="89.8" height="18.2"/>
		<rect x="889.7" y="14.4" class="st0" width="3.9" height="18.2"/>
		<line x1="0" y1="525.2" x2="1024" y2="45.7"/>
		<line x1="0" y1="45.7" x2="1024" y2="525.2"/>
		<rect x="85" y="271.3" class="st0" width="363.5" height="18.2"/>
		<rect x="85" y="192.7" class="st0" width="363.5" height="42.1"/>
		<rect x="85" y="130.9" class="st0" width="363.5" height="42.1"/>
		<rect x="85" y="69.2" class="st0" width="363.5" height="42.1"/>
		<rect x="85" y="305.7" class="st0" width="129.8" height="18.2"/>
		<path class="st2" d="M0,431.2l34.1,11.3c34.1,11.3,102.4,33.9,170.7,49c68.3,15.3,136.5,22.4,204.8,26.4
			c68.3,3.7,136.5,3.7,204.8-11.3c68.3-15.3,136.5-45,204.8-52.8c68.3-7.8,136.5,7.8,170.7,15l34.1,7.6v46.5h-34.1
			c-34.1,0-102.4,0-170.7,0s-136.5,0-204.8,0s-136.5,0-204.8,0s-136.5,0-204.8,0s-136.5,0-170.7,0H0V431.2z"/>
		<rect x="624.6" y="78.3" class="st0" width="269.5" height="236.5"/>
		<rect x="641.2" y="90.2" class="st1" width="221.6" height="26.3"/>
		<rect x="752" y="146.7" class="st1" width="110.8" height="26.3"/>
		<rect x="752" y="192.7" class="st1" width="110.8" height="26.3"/>
		<rect x="752" y="243.3" class="st1" width="110.8" height="26.3"/>
		<rect x="640.6" y="143.6" class="st1" width="94.8" height="126"/>
		<line x1="735.4" y1="143.6" x2="640.6" y2="269.7"/>
		<line x1="735.4" y1="269.7" x2="640.6" y2="143.6"/>
		<rect y="522.7" class="st2" width="1024" height="24.4"/>
		<line x1="16.9" y1="14.4" x2="146.7" y2="32.7"/>
		<line x1="16.9" y1="32.7" x2="146.7" y2="14.4"/>
	</g>
	<g>
		<rect x="0" y="1821.6" class="st0" width="1024" height="413.5"/>
		<rect x="0" y="2233.5" class="st1" width="1024" height="30.6"/>
		<g>
			<rect x="35.3" y="1860.5" class="st1" width="149.9" height="42.4"/>
			<line x1="36.8" y1="1860.1" x2="186.7" y2="1902.5"/>
			<line x1="36.8" y1="1902.5" x2="186.7" y2="1860.1"/>
		</g>
		<rect x="401.3" y="2114.3" class="st1" width="221.5" height="18.2"/>
		<g>
			<rect x="554" y="2199.1" class="st1" width="63.1" height="18.2"/>
			<rect x="479" y="2199.1" class="st1" width="63.1" height="18.2"/>
			<rect x="406" y="2199.1" class="st1" width="63.1" height="18.2"/>
		</g>
		<g>
			<rect x="34.6" y="1928.7" class="st1" width="77" height="32.2"/>
			<rect x="34.6" y="1980.2" class="st1" width="90.4" height="18.2"/>
			<rect x="34.6" y="2012.9" class="st1" width="77" height="18.2"/>
			<rect x="34.6" y="2049.6" class="st1" width="107.6" height="18.2"/>
		</g>
		<g>
			<rect x="231" y="1928.7" class="st1" width="77" height="32.2"/>
			<rect x="231" y="1980.2" class="st1" width="90.4" height="18.2"/>
			<rect x="231" y="2012.9" class="st1" width="77" height="18.2"/>
			<rect x="231" y="2049.6" class="st1" width="107.6" height="18.2"/>
		</g>
		<g>
			<rect x="431.2" y="1928.7" class="st1" width="77" height="32.2"/>
			<rect x="431.2" y="1980.2" class="st1" width="90.4" height="18.2"/>
			<rect x="431.2" y="2012.9" class="st1" width="77" height="18.2"/>
			<rect x="431.2" y="2049.6" class="st1" width="107.6" height="18.2"/>
		</g>
		<rect x="480" y="2239.7" class="st4" width="63.1" height="18.2"/>
		<g>
			<rect x="458.9" y="2155.8" class="st1" width="28.6" height="18.2"/>
			<rect x="497.3" y="2155.8" class="st1" width="28.6" height="18.2"/>
			<rect x="536.5" y="2155.8" class="st1" width="28.6" height="18.2"/>
		</g>
		<line class="st5" x1="32.1" y1="2093.4" x2="991.9" y2="2093.4"/>
	</g>
	<g>
		<rect x="56.2" y="640.3" class="st0" width="387.8" height="44.9"/>
		<rect x="56.2" y="1013.3" class="st0" width="136.5" height="28.2"/>
		<rect x="212.7" y="1013.3" class="st0" width="92.9" height="28.2"/>
		<rect x="423.1" y="793.9" class="st0" width="177.2" height="28.2"/>
		<rect x="446.3" y="846.6" class="st0" width="130.7" height="28.2"/>
		<rect x="423.1" y="899.2" class="st0" width="177.2" height="28.2"/>
		<rect x="100" y="793.9" class="st0" width="177.2" height="28.2"/>
		<rect x="123.2" y="846.6" class="st0" width="130.7" height="28.2"/>
		<rect x="100" y="899.2" class="st0" width="177.2" height="28.2"/>
		<rect x="743.5" y="793.9" class="st0" width="177.2" height="28.2"/>
		<rect x="766.7" y="846.6" class="st0" width="130.7" height="28.2"/>
		<rect x="743.5" y="899.2" class="st0" width="177.2" height="28.2"/>
		<g>
			<rect x="374" y="729.1" class="st0" width="275.4" height="44.9"/>
			<rect x="374" y="948.6" class="st0" width="275.4" height="44.9"/>
			<rect x="374" y="729.1" class="st6" width="275.4" height="263.2"/>
		</g>
		<g>
			<rect x="55" y="729.1" class="st0" width="275.4" height="44.9"/>
			<rect x="55" y="947.9" class="st0" width="275.4" height="44.9"/>
			<rect x="55" y="729.1" class="st6" width="275.4" height="263.2"/>
		</g>
		<g>
			<rect x="692.1" y="729.1" class="st0" width="275.4" height="44.9"/>
			<rect x="692.1" y="945.9" class="st0" width="275.4" height="44.9"/>
			<rect x="692.1" y="729.1" class="st6" width="275.4" height="263.2"/>
		</g>
	</g>
</g>
</svg>
